<?xml version="1.0" encoding="iso-8859-1"?>
<!-- Generator: Adobe Illustrator 19.2.0, SVG Export Plug-In . SVG Version: 6.00 Build 0)  -->
<svg version="1.1" id="Layer_1" xmlns="http://www.w3.org/2000/svg" xmlns:xlink="http://www.w3.org/1999/xlink" x="0px" y="0px"
	 viewBox="0 0 40 40" style="enable-background:new 0 0 40 40;" xml:space="preserve">
<path style="fill:#788B9C;" d="M2.742,2.742c-2.12,2.12-2.335,5.342-0.48,7.197s7.475,4.038,9.595,1.918s-0.063-7.74-1.918-9.595
	S4.862,0.622,2.742,2.742z"/>
<path style="fill:#788B9C;" d="M37.258,2.742c2.12,2.12,2.335,5.342,0.48,7.197c-1.855,1.855-7.475,4.038-9.595,1.918
	s0.063-7.74,1.918-9.595S35.138,0.622,37.258,2.742z"/>
<g>
	<path style="fill:#FFFFFF;" d="M20,38.5c-2.334,0-5.059-1.555-6.683-2.887c-1.558-1.277-4.237-2.993-6.068-4.047
		C3.166,29.217,1.5,25.865,1.5,20C1.5,10.514,9.972,2.5,20,2.5S38.5,10.514,38.5,20c0,5.865-1.666,9.217-5.749,11.566
		c-1.831,1.054-4.511,2.77-6.068,4.047C25.059,36.945,22.334,38.5,20,38.5z"/>
	<path style="fill:#788B9C;" d="M20,3c9.757,0,18,7.785,18,17c0,5.66-1.593,8.885-5.499,11.133
		c-1.847,1.063-4.555,2.798-6.135,4.093C24.806,36.506,22.202,38,20,38s-4.806-1.494-6.366-2.773
		c-1.58-1.296-4.288-3.03-6.135-4.093C3.593,28.885,2,25.66,2,20C2,10.785,10.243,3,20,3 M20,2C9.507,2,1,10.256,1,20
		c0,5.867,1.656,9.5,6,12c1.762,1.014,4.437,2.719,6,4c1.696,1.391,4.516,3,7,3s5.304-1.609,7-3c1.562-1.281,4.238-2.986,6-4
		c4.344-2.5,6-6.133,6-12C39,10.256,30.493,2,20,2L20,2z"/>
</g>
<ellipse transform="matrix(0.7071 -0.7071 0.7071 0.7071 -11.2487 15.8431)" style="fill:#788B9C;" cx="13.5" cy="21.5" rx="6.222" ry="4.667"/>
<circle style="fill:#36404D;" cx="15.5" cy="19.5" r="1.5"/>
<ellipse transform="matrix(0.7071 -0.7071 0.7071 0.7071 -7.4411 25.0355)" style="fill:#788B9C;" cx="26.5" cy="21.5" rx="4.667" ry="6.222"/>
<circle style="fill:#36404D;" cx="24.5" cy="19.5" r="1.5"/>
<path style="fill:#36404D;" d="M20,28c-2.209,0-4,0-4,1.5c0,2.071,2.625,4.5,4,4.5s4-2.429,4-4.5C24,28,22.209,28,20,28z"/>
</svg>
